<svg width="36" height="37" viewBox="0 0 36 37" fill="none" xmlns="http://www.w3.org/2000/svg">
<rect x="0.5" y="1" width="35" height="35" rx="17.5" stroke="#8674F9"/>
<path d="M20.208 20.8936H16.1904V22.333H20.1865V23.2354H16.1904V27.5H15.2021V23.2354H13.0322V22.333H15.2021V20.8936H13.0322V19.9912H15.2021V11.4941H20.208C21.1963 11.4941 22.0485 11.7018 22.7646 12.1172C23.4808 12.5254 24.0322 13.084 24.4189 13.793C24.8057 14.502 24.999 15.304 24.999 16.1992C24.999 17.0944 24.8057 17.8965 24.4189 18.6055C24.0322 19.3145 23.4808 19.873 22.7646 20.2812C22.0485 20.6895 21.1963 20.8936 20.208 20.8936ZM16.1904 19.9912H20.208C21.3753 19.9912 22.3027 19.6367 22.9902 18.9277C23.6849 18.2188 24.0322 17.3092 24.0322 16.1992C24.0322 15.0892 23.6849 14.1797 22.9902 13.4707C22.3027 12.7617 21.3753 12.4072 20.208 12.4072H16.1904V19.9912Z" fill="#8674F9"/>
</svg>
