<svg width="82" height="36" viewBox="0 0 82 36" fill="none" xmlns="http://www.w3.org/2000/svg">
<path fill-rule="evenodd" clip-rule="evenodd" d="M10 0H0V36H10V18C10 27.9411 18.0589 36 28 36C37.9411 36 46 27.9411 46 18C46 8.05888 37.9411 0 28 0C18.0589 0 10 8.05888 10 18V0ZM36 18C36 22.4183 32.4183 26 28 26C23.5817 26 20 22.4183 20 18C20 13.5817 23.5817 10 28 10C32.4183 10 36 13.5817 36 18ZM53.6569 12.3431C55.1571 13.8434 56 15.8783 56 18C56 20.1217 55.1571 22.1566 53.6569 23.6569C52.1566 25.1571 50.1217 26 48 26V36C52.7739 36 57.3523 34.1036 60.7279 30.7279C62.0561 29.3998 63.1552 27.8854 64 26.2463V36C68.7739 36 73.3523 34.1036 76.7279 30.7279C80.1036 27.3523 82 22.7739 82 18C82 13.2261 80.1036 8.64774 76.7279 5.27208C73.3523 1.89642 68.7739 0 64 0V9.75375C63.1552 8.11457 62.0561 6.60023 60.7279 5.27208C57.3523 1.89642 52.7739 0 48 0V10C50.1217 10 52.1566 10.8429 53.6569 12.3431ZM69.6569 23.6569C68.1861 25.1277 66.2015 25.9666 64.125 25.999C65.3469 23.5357 66 20.8015 66 18C66 15.1985 65.3469 12.4643 64.125 10.001C66.2015 10.0334 68.1861 10.8723 69.6569 12.3431C71.1571 13.8434 72 15.8783 72 18C72 20.1217 71.1571 22.1566 69.6569 23.6569Z" fill="#9888FF"/>
</svg>
