<svg width="20" height="16" viewBox="0 0 20 16" fill="none" xmlns="http://www.w3.org/2000/svg">
<path fill-rule="evenodd" clip-rule="evenodd" d="M17.3278 0.156816C16.6076 0.357055 8.474 2.71031 1.85129 4.61288C1.32413 4.77985 0.943271 5.2069 0.868539 5.67628C0.793807 6.14566 1.1051 6.54849 1.52433 6.66642C1.88234 6.77589 5.47173 7.81189 5.47173 7.81189L5.57839 13.8231L9.29036 11.6364L6.36106 7.33522L13.6574 4.72727L7.52116 8.69492L9.29036 11.3381C9.39412 11.4724 11.5597 14.7701 11.7153 14.9715C11.9748 15.3072 12.3711 15.9616 12.616 15.9955C13.0446 16.0547 13.5666 15.5273 13.8904 14.6726C14.2048 13.8766 16.3355 8.35464 19.0711 0.997515C19.3856 0.201496 18.6457 -0.260595 17.3278 0.156816Z" fill="#40B0FA"/>
</svg>
