<svg width="48" height="48" viewBox="0 0 48 48" fill="none" xmlns="http://www.w3.org/2000/svg">
<path fill-rule="evenodd" clip-rule="evenodd" d="M24 0C37.2554 0 48 10.7446 48 24C48 37.2554 37.2554 48 24 48C10.7446 48 0 37.2554 0 24C0 10.7446 10.7446 0 24 0ZM27.5581 38.4416H32.3988V9.60101H25.1988C17.8788 9.60101 14.0794 13.4004 14.0794 18.961C14.0794 23.4804 16.1581 25.921 19.9594 28.681L13.3594 38.401H18.9181L25.8394 27.6416L23.3988 25.921C20.2788 23.8404 18.8794 22.1216 18.8794 18.6416C18.8794 15.5216 20.9581 13.441 25.1194 13.441H27.5581V38.4416Z" fill="white"/>
</svg>
