<svg width="433" height="304" viewBox="0 0 433 304" fill="none" xmlns="http://www.w3.org/2000/svg">
<g clip-path="url(#clip0_6052_391)">
<path d="M217 0L217 30.1488" stroke="white" stroke-width="2" stroke-linecap="round"/>
<path d="M217 273.851L217 304" stroke="white" stroke-width="2" stroke-linecap="round"/>
<path d="M348.629 75.9888L322.521 91.0654" stroke="white" stroke-width="2" stroke-linecap="round"/>
<path d="M111.479 212.935L85.3712 228.012" stroke="white" stroke-opacity="0.2" stroke-width="2" stroke-linecap="round"/>
<path d="M363.28 110.694L334.266 118.887" stroke="white" stroke-width="2" stroke-linecap="round"/>
<path d="M99.7354 185.113L70.7212 193.306" stroke="white" stroke-opacity="0.2" stroke-width="2" stroke-linecap="round"/>
<path d="M348.629 228.011L322.521 212.935" stroke="white" stroke-width="2" stroke-linecap="round"/>
<path d="M111.479 91.0654L85.3712 75.9888" stroke="white" stroke-opacity="0.2" stroke-width="2" stroke-linecap="round"/>
<path d="M363.28 193.307L334.266 185.114" stroke="white" stroke-width="2" stroke-linecap="round"/>
<path d="M99.7354 118.887L70.7212 110.694" stroke="white" stroke-opacity="0.2" stroke-width="2" stroke-linecap="round"/>
<path d="M65 152L95.1488 152" stroke="white" stroke-opacity="0.2" stroke-width="2" stroke-linecap="round"/>
<path d="M338.852 152L369 152" stroke="white" stroke-width="2" stroke-linecap="round"/>
<path d="M109.52 259.48L130.838 238.162" stroke="white" stroke-width="2" stroke-linecap="round"/>
<path d="M303.162 65.8379L324.481 44.5195" stroke="white" stroke-width="2" stroke-linecap="round"/>
<path d="M324.48 259.48L303.162 238.162" stroke="white" stroke-width="2" stroke-linecap="round"/>
<path d="M130.838 65.8379L109.519 44.5195" stroke="white" stroke-opacity="0.2" stroke-width="2" stroke-linecap="round"/>
<path d="M141 20.3643L156.074 46.4738" stroke="white" stroke-opacity="0.2" stroke-width="2" stroke-linecap="round"/>
<path d="M277.926 257.526L293 283.636" stroke="white" stroke-width="2" stroke-linecap="round"/>
<path d="M177.659 5.1792L185.462 34.3007" stroke="white" stroke-opacity="0.2" stroke-width="2" stroke-linecap="round"/>
<path d="M248.537 269.7L256.34 298.821" stroke="white" stroke-width="2" stroke-linecap="round"/>
<path d="M293 20.3643L277.926 46.4738" stroke="white" stroke-width="2" stroke-linecap="round"/>
<path d="M156.074 257.526L141 283.636" stroke="white" stroke-width="2" stroke-linecap="round"/>
<path d="M256.341 5.1792L248.538 34.3007" stroke="white" stroke-width="2" stroke-linecap="round"/>
<path d="M185.463 269.7L177.66 298.821" stroke="white" stroke-width="2" stroke-linecap="round"/>
<path d="M217 47.8979C234.189 47.898 251.112 52.137 266.271 60.2396C281.43 68.3422 294.356 80.0583 303.906 94.35C313.455 108.642 319.333 125.068 321.018 142.174C322.702 159.28 320.142 176.537 313.565 192.417C306.987 208.297 296.594 222.31 283.307 233.214C270.02 244.118 254.249 251.578 237.391 254.931C220.533 258.284 203.108 257.428 186.659 252.439C170.211 247.449 155.247 238.48 143.093 226.326" stroke="white" stroke-width="2"/>
<rect x="177.64" y="120.758" width="77.5592" height="64.2994" rx="11" stroke="white" stroke-width="2"/>
<line x1="196.529" y1="128.528" x2="196.529" y2="113.058" stroke="white" stroke-width="2"/>
<line x1="238.519" y1="128.528" x2="238.519" y2="113.058" stroke="white" stroke-width="2"/>
<path d="M206.951 151.462L214.917 159.119L221.821 152.419L228.725 145.719" stroke="white" stroke-width="2"/>
</g>
<defs>
<clipPath id="clip0_6052_391">
<rect width="433" height="304" fill="white"/>
</clipPath>
</defs>
</svg>
