<svg width="432" height="304" viewBox="0 0 432 304" fill="none" xmlns="http://www.w3.org/2000/svg">
<g clip-path="url(#clip0_6054_393)">
<path d="M336 23L336 304" stroke="white" stroke-width="2" stroke-linecap="round"/>
<path d="M316 49L316 304" stroke="white" stroke-width="2" stroke-linecap="round"/>
<path d="M296 78L296 304" stroke="white" stroke-width="2" stroke-linecap="round"/>
<path d="M276 142L276 304" stroke="white" stroke-width="2" stroke-linecap="round"/>
<path d="M256 108L256 304" stroke="white" stroke-width="2" stroke-linecap="round"/>
<path d="M236 142L236 304" stroke="white" stroke-width="2" stroke-linecap="round"/>
<path d="M216 164L216 304" stroke="white" stroke-width="2" stroke-linecap="round"/>
<path d="M356 0L356 304" stroke="white" stroke-width="2" stroke-linecap="round"/>
<path d="M376 0L376 304" stroke="white" stroke-width="2" stroke-linecap="round"/>
<path d="M396 0L396 304" stroke="white" stroke-width="2" stroke-linecap="round"/>
<path d="M196 164L196 304" stroke="white" stroke-width="2" stroke-linecap="round"/>
<path d="M176 164L176 304" stroke="white" stroke-width="2" stroke-linecap="round"/>
<path d="M156 196L156 304" stroke="white" stroke-width="2" stroke-linecap="round"/>
<path d="M136 243L136 304" stroke="white" stroke-width="2" stroke-linecap="round"/>
<path d="M116 258L116 304" stroke="white" stroke-width="2" stroke-linecap="round"/>
<path d="M96 234L96 304" stroke="white" stroke-width="2" stroke-linecap="round"/>
<path d="M76 250L76 304" stroke="white" stroke-width="2" stroke-linecap="round"/>
<path d="M56 285L56 304" stroke="white" stroke-width="2" stroke-linecap="round"/>
<path d="M36 295L36 304" stroke="white" stroke-width="2" stroke-linecap="round"/>
</g>
<defs>
<clipPath id="clip0_6054_393">
<rect width="432" height="304" fill="white"/>
</clipPath>
</defs>
</svg>
