<svg width="431" height="304" viewBox="0 0 431 304" fill="none" xmlns="http://www.w3.org/2000/svg">
<circle cx="61" cy="276" r="27" stroke="white" stroke-width="2"/>
<circle cx="123" cy="276" r="27" stroke="white" stroke-width="2"/>
<circle cx="185" cy="276" r="27" stroke="white" stroke-width="2"/>
<circle cx="247" cy="276" r="27" stroke="white" stroke-width="2"/>
<circle cx="309" cy="276" r="27" stroke="white" stroke-width="2"/>
<circle cx="371" cy="276" r="27" stroke="white" stroke-width="2"/>
<circle cx="61" cy="152" r="27" stroke="white" stroke-opacity="0.2" stroke-width="2"/>
<circle cx="123" cy="152" r="27" stroke="white" stroke-opacity="0.2" stroke-width="2"/>
<circle cx="185" cy="152" r="27" stroke="white" stroke-width="2"/>
<circle cx="247" cy="152" r="27" stroke="white" stroke-opacity="0.2" stroke-width="2"/>
<circle cx="309" cy="152" r="27" stroke="white" stroke-width="2"/>
<circle cx="371" cy="152" r="27" stroke="white" stroke-width="2"/>
<circle cx="61" cy="214" r="27" stroke="white" stroke-opacity="0.2" stroke-width="2"/>
<circle cx="123" cy="214" r="27" stroke="white" stroke-width="2"/>
<circle cx="185" cy="214" r="27" stroke="white" stroke-width="2"/>
<circle cx="247" cy="214" r="27" stroke="white" stroke-width="2"/>
<circle cx="309" cy="214" r="27" stroke="white" stroke-width="2"/>
<circle cx="371" cy="214" r="27" stroke="white" stroke-width="2"/>
<circle cx="61" cy="90" r="27" stroke="white" stroke-opacity="0.2" stroke-width="2"/>
<circle cx="123" cy="90" r="27" stroke="white" stroke-opacity="0.2" stroke-width="2"/>
<circle cx="185" cy="90" r="27" stroke="white" stroke-width="2"/>
<circle cx="247" cy="90" r="27" stroke="white" stroke-opacity="0.2" stroke-width="2"/>
<circle cx="309" cy="90" r="27" stroke="white" stroke-width="2"/>
<circle cx="371" cy="90" r="27" stroke="white" stroke-width="2"/>
<circle cx="61" cy="28" r="27" stroke="white" stroke-opacity="0.2" stroke-width="2"/>
<circle cx="123" cy="28" r="27" stroke="white" stroke-opacity="0.2" stroke-width="2"/>
<circle cx="185" cy="28" r="27" stroke="white" stroke-opacity="0.2" stroke-width="2"/>
<circle cx="247" cy="28" r="27" stroke="white" stroke-opacity="0.2" stroke-width="2"/>
<circle cx="309" cy="28" r="27" stroke="white" stroke-opacity="0.2" stroke-width="2"/>
<circle cx="371" cy="28" r="27" stroke="white" stroke-width="2"/>
</svg>
