<svg width="56" height="78" viewBox="0 0 56 78" fill="none" xmlns="http://www.w3.org/2000/svg">
<rect x="0.5" y="0.5" width="55" height="77" rx="11.5" stroke="white"/>
<rect x="10.5" y="11.5" width="35" height="35" rx="17.5" stroke="white"/>
<path d="M30.208 31.3936H26.1904V32.833H30.1865V33.7354H26.1904V38H25.2021V33.7354H23.0322V32.833H25.2021V31.3936H23.0322V30.4912H25.2021V21.9941H30.208C31.1963 21.9941 32.0485 22.2018 32.7646 22.6172C33.4808 23.0254 34.0322 23.584 34.4189 24.293C34.8057 25.002 34.999 25.804 34.999 26.6992C34.999 27.5944 34.8057 28.3965 34.4189 29.1055C34.0322 29.8145 33.4808 30.373 32.7646 30.7812C32.0485 31.1895 31.1963 31.3936 30.208 31.3936ZM26.1904 30.4912H30.208C31.3753 30.4912 32.3027 30.1367 32.9902 29.4277C33.6849 28.7188 34.0322 27.8092 34.0322 26.6992C34.0322 25.5892 33.6849 24.6797 32.9902 23.9707C32.3027 23.2617 31.3753 22.9072 30.208 22.9072H26.1904V30.4912Z" fill="white"/>
<rect x="14" y="39" width="28" height="28" rx="14" fill="white"/>
<path d="M22 52.5L27 57.5L35 49" stroke="#8674F9"/>
</svg>
