<svg width="56" height="78" viewBox="0 0 56 78" fill="none" xmlns="http://www.w3.org/2000/svg">
<rect x="0.5" y="0.5" width="55" height="77" rx="11.5" stroke="white"/>
<path d="M23.8389 11.1182C26.174 9.17238 29.5326 9.11228 31.9316 10.9365L32.1611 11.1182L43.1611 20.2852C44.643 21.5201 45.4999 23.3494 45.5 25.2783V40C45.5 43.5899 42.5899 46.5 39 46.5H17C13.4101 46.5 10.5 43.5899 10.5 40V25.2783C10.5001 23.4699 11.2531 21.749 12.5684 20.5234L12.8389 20.2852L23.8389 11.1182Z" stroke="white"/>
<path d="M22.75 46.5L22.75 33.5L28.5 33.5L34.25 33.5L34.25 47" stroke="white"/>
<rect x="14" y="39" width="28" height="28" rx="14" fill="white"/>
<path d="M22 52.5L27 57.5L35 49" stroke="#8674F9"/>
<circle cx="28" cy="23" r="4.5" stroke="white"/>
<path d="M25 25.5L31.5 20.5" stroke="white" stroke-linecap="round"/>
</svg>
