<svg width="56" height="78" viewBox="0 0 56 78" fill="none" xmlns="http://www.w3.org/2000/svg">
<rect x="0.5" y="0.5" width="55" height="77" rx="11.5" stroke="white"/>
<rect x="10.5" y="35.5" width="35" height="20" rx="6.5" stroke="white"/>
<rect x="10.5" y="11.5" width="35" height="20" rx="6.5" stroke="white"/>
<path d="M21.0234 22.8232H18.5898V23.7666H20.9824V24.6006H18.5898V27H17.6602V24.6006H16.1562V23.7666H17.6602V22.8232H16.1562V21.9893H17.6602V16.8145H21.0234C21.7161 16.8145 22.2995 16.9489 22.7734 17.2178C23.2474 17.4867 23.6051 17.849 23.8467 18.3047C24.0882 18.7559 24.209 19.2617 24.209 19.8223C24.209 20.3828 24.0882 20.891 23.8467 21.3467C23.6051 21.7979 23.2474 22.1579 22.7734 22.4268C22.2995 22.6956 21.7161 22.8278 21.0234 22.8232ZM18.5898 21.9893H21.0234C21.7572 21.9938 22.3177 21.7933 22.7051 21.3877C23.097 20.9775 23.293 20.4557 23.293 19.8223C23.293 19.1934 23.097 18.6761 22.7051 18.2705C22.3177 17.8604 21.7572 17.6553 21.0234 17.6553H18.5898V21.9893Z" fill="white"/>
<rect x="14" y="39" width="28" height="28" rx="14" fill="white"/>
<path d="M22 52.5L27 57.5L35 49" stroke="#8674F9"/>
</svg>
